<?xml version="1.0" encoding="UTF-8" standalone="no"?>
<!-- Created with Inkscape (http://www.inkscape.org/) -->

<svg
   xmlns:dc="http://purl.org/dc/elements/1.1/"
   xmlns:cc="http://creativecommons.org/ns#"
   xmlns:rdf="http://www.w3.org/1999/02/22-rdf-syntax-ns#"
   xmlns:svg="http://www.w3.org/2000/svg"
   xmlns="http://www.w3.org/2000/svg"
   xmlns:xlink="http://www.w3.org/1999/xlink"
   xmlns:sodipodi="http://sodipodi.sourceforge.net/DTD/sodipodi-0.dtd"
   xmlns:inkscape="http://www.inkscape.org/namespaces/inkscape"
   width="512pt"
   height="512pt"
   viewBox="0 0 640.00002 639.99999"
   id="svg4231"
   version="1.1"
   inkscape:version="0.91 r13725"
   sodipodi:docname="icon512.svg"
   inkscape:export-filename="/home/xruxa/AndroidStudioProjects/FastMath10/app/src/main/res/mipmap-xxxhdpi/icon.png"
   inkscape:export-xdpi="27"
   inkscape:export-ydpi="27">
  <defs
     id="defs4233">
    <linearGradient
       inkscape:collect="always"
       id="linearGradient4898">
      <stop
         style="stop-color:#5b5a5d;stop-opacity:1"
         offset="0"
         id="stop4900" />
      <stop
         style="stop-color:#d2d0d2;stop-opacity:1"
         offset="1"
         id="stop4902" />
    </linearGradient>
    <linearGradient
       inkscape:collect="always"
       id="linearGradient4864">
      <stop
         style="stop-color:#ffffb5;stop-opacity:0"
         offset="0"
         id="stop4852" />
      <stop
         style="stop-color:#ffffff;stop-opacity:0.64150941"
         offset="1"
         id="stop4854" />
    </linearGradient>
    <filter
       style="color-interpolation-filters:sRGB;"
       inkscape:label="Blur"
       id="filter4802">
      <feGaussianBlur
         stdDeviation="15.25 15.25"
         result="blur"
         id="feGaussianBlur4804" />
    </filter>
    <filter
       style="color-interpolation-filters:sRGB;"
       inkscape:label="Blur"
       id="filter4880">
      <feGaussianBlur
         stdDeviation="15.25 15.25"
         result="blur"
         id="feGaussianBlur4882" />
    </filter>
    <clipPath
       clipPathUnits="userSpaceOnUse"
       id="clipPath4892">
      <circle
         style="fill:url(#linearGradient4896);fill-opacity:1"
         id="circle4894"
         cx="616.14789"
         cy="842.74341"
         r="239.21655" />
    </clipPath>
    <linearGradient
       inkscape:collect="always"
       xlink:href="#linearGradient4864"
       id="linearGradient4896"
       gradientUnits="userSpaceOnUse"
       gradientTransform="translate(290.57657,112.47039)"
       x1="154.60283"
       y1="565.22406"
       x2="573.84119"
       y2="880.00098" />
    <linearGradient
       inkscape:collect="always"
       xlink:href="#linearGradient4898"
       id="linearGradient4904"
       x1="404.94446"
       y1="992.54083"
       x2="179.30791"
       y2="485.55496"
       gradientUnits="userSpaceOnUse"
       gradientTransform="translate(26.463547,-0.69640914)" />
    <filter
       inkscape:menu-tooltip="In and out glow with a possible offset and colorizable flood"
       inkscape:menu="Shadows and Glows"
       inkscape:label="Cutout Glow"
       style="color-interpolation-filters:sRGB;"
       id="filter4928">
      <feOffset
         dy="3"
         dx="3"
         id="feOffset4930" />
      <feGaussianBlur
         stdDeviation="3"
         result="blur"
         id="feGaussianBlur4932" />
      <feFlood
         flood-color="rgb(0,0,0)"
         flood-opacity="1"
         result="flood"
         id="feFlood4934" />
      <feComposite
         in="flood"
         in2="SourceGraphic"
         operator="in"
         result="composite"
         id="feComposite4936" />
      <feBlend
         in="blur"
         in2="composite"
         mode="normal"
         id="feBlend4938" />
    </filter>
    <filter
       style="color-interpolation-filters:sRGB;"
       inkscape:label="Drop Shadow"
       id="filter6294">
      <feFlood
         flood-opacity="0.243137"
         flood-color="rgb(0,0,0)"
         result="flood"
         id="feFlood6296" />
      <feComposite
         in="flood"
         in2="SourceGraphic"
         operator="out"
         result="composite1"
         id="feComposite6298" />
      <feGaussianBlur
         in="composite1"
         stdDeviation="0.5"
         result="blur"
         id="feGaussianBlur6300" />
      <feOffset
         dx="1"
         dy="1.1"
         result="offset"
         id="feOffset6302" />
      <feComposite
         in="offset"
         in2="SourceGraphic"
         operator="in"
         result="composite2"
         id="feComposite6304" />
    </filter>
    <filter
       style="color-interpolation-filters:sRGB;"
       inkscape:label="Drop Shadow"
       id="filter6466">
      <feFlood
         flood-opacity="0.141176"
         flood-color="rgb(255,255,255)"
         result="flood"
         id="feFlood6468" />
      <feComposite
         in="flood"
         in2="SourceGraphic"
         operator="out"
         result="composite1"
         id="feComposite6470" />
      <feGaussianBlur
         in="composite1"
         stdDeviation="0.2"
         result="blur"
         id="feGaussianBlur6472" />
      <feOffset
         dx="-1.1"
         dy="-1.1"
         result="offset"
         id="feOffset6474" />
      <feComposite
         in="offset"
         in2="SourceGraphic"
         operator="in"
         result="composite2"
         id="feComposite6476" />
    </filter>
    <linearGradient
       inkscape:collect="always"
       xlink:href="#linearGradient4898"
       id="linearGradient6494"
       x1="202.1537"
       y1="669.90192"
       x2="231.15001"
       y2="716.71411"
       gradientUnits="userSpaceOnUse" />
  </defs>
  <sodipodi:namedview
     id="base"
     pagecolor="#ffffff"
     bordercolor="#666666"
     borderopacity="1.0"
     inkscape:pageopacity="0.0"
     inkscape:pageshadow="2"
     inkscape:zoom="1.3694754"
     inkscape:cx="324.93793"
     inkscape:cy="308.09995"
     inkscape:document-units="px"
     inkscape:current-layer="layer1"
     showgrid="false"
     units="pt"
     inkscape:window-width="1871"
     inkscape:window-height="1056"
     inkscape:window-x="1969"
     inkscape:window-y="24"
     inkscape:window-maximized="1" />
  <metadata
     id="metadata4236">
    <rdf:RDF>
      <cc:Work
         rdf:about="">
        <dc:format>image/svg+xml</dc:format>
        <dc:type
           rdf:resource="http://purl.org/dc/dcmitype/StillImage" />
        <dc:title />
      </cc:Work>
    </rdf:RDF>
  </metadata>
  <g
     inkscape:label="Layer 1"
     inkscape:groupmode="layer"
     id="layer1"
     transform="translate(0,-412.36222)">
    <circle
       style="fill:#bfbfbd;fill-opacity:1;filter:url(#filter4802)"
       id="path4798"
       cx="324.93793"
       cy="744.26227"
       r="279.60828" />
    <circle
       r="279.60828"
       cy="736.26227"
       cx="318.93796"
       id="circle4800"
       style="fill:url(#linearGradient4904);fill-opacity:1" />
    <ellipse
       style="fill:#7fbff1;fill-opacity:1"
       id="circle4806"
       cx="318.93796"
       cy="736.26227"
       r="239.21655" />
    <path
       style="fill:#5d585d;fill-opacity:0.64150941;filter:url(#filter4880)"
       d="m 335.84317,578.1077 0,529.2714 560.60934,0 0,-529.2714 -560.60934,0 z m 280.30469,25.41797 A 239.21655,239.21655 0 0 1 855.36461,842.74246 239.21655,239.21655 0 0 1 616.14786,1081.9592 239.21655,239.21655 0 0 1 376.93106,842.74246 239.21655,239.21655 0 0 1 616.14786,603.52567 Z"
       id="rect4874"
       inkscape:connector-curvature="0"
       clip-path="url(#clipPath4892)"
       transform="translate(-297.20995,-106.48112)" />
    <g
       transform="matrix(9.0003817,0,0,9.0003817,-1604.4619,-5459.0206)"
       id="g4917"
       style="font-style:normal;font-variant:normal;font-weight:normal;font-stretch:normal;font-size:60px;line-height:125%;font-family:Arial;-inkscape-font-specification:'Arial, Normal';text-align:start;letter-spacing:0px;word-spacing:0px;writing-mode:lr-tb;text-anchor:start;fill:url(#linearGradient6494);fill-opacity:1;stroke:none;stroke-width:1px;stroke-linecap:butt;stroke-linejoin:miter;stroke-opacity:1">
      <path
         inkscape:connector-curvature="0"
         id="path4919"
         style="font-style:normal;font-variant:normal;font-weight:normal;font-stretch:normal;font-size:60px;line-height:125%;font-family:'Abyssinica SIL';-inkscape-font-specification:'Abyssinica SIL, Normal';text-align:start;writing-mode:lr-tb;text-anchor:start;fill:url(#linearGradient6494);fill-opacity:1.0"
         d="m 230.8405,692.95709 q 0,2.46094 -0.55664,4.30664 -0.52734,1.84571 -1.46484,3.07617 -0.90821,1.23047 -2.13868,1.84571 -1.23047,0.61523 -2.63672,0.61523 -2.19726,0 -3.48632,-0.73242 -1.25977,-0.76172 -1.9336,-1.9043 -0.67383,-1.14257 -0.8789,-2.51953 -0.17578,-1.37695 -0.17578,-2.66601 l 0,-16.96289 -8.17383,0 0,13.74023 q 0,2.34375 -0.49805,4.36523 -0.49805,2.02149 -1.46484,3.51563 -0.9668,1.46484 -2.37305,2.31445 -1.40625,0.84961 -3.22266,0.84961 -1.28906,0 -2.13867,-0.73242 -0.82031,-0.73242 -1.28906,-1.9043 -0.46875,-1.20117 -0.64453,-2.69531 -0.17578,-1.52344 -0.17578,-3.07617 l 1.99218,0 q 0,1.75781 0.61524,2.87109 0.64453,1.08399 1.64062,1.08399 0.43946,0 0.9668,-0.14649 0.55664,-0.17578 1.08398,-0.64453 0.55665,-0.49805 1.05469,-1.37695 0.49805,-0.87891 0.87891,-2.28516 0.41015,-1.43554 0.64453,-3.45703 0.23437,-2.05078 0.23437,-4.86328 l 0,-7.55859 -2.51953,0 q -1.49414,0 -2.34375,0.38086 -0.84961,0.38085 -1.28906,0.9375 -0.43945,0.52734 -0.61523,1.11328 -0.17578,0.58593 -0.29297,0.96679 l -1.75781,0 q 0,-0.99609 0.38085,-2.25586 0.38086,-1.25976 1.20118,-2.37304 0.84961,-1.11328 2.16797,-1.84571 1.31835,-0.76171 3.22265,-0.76171 l 21.5918,0 q 0.99609,0 1.8457,-0.46875 0.84961,-0.46875 1.02539,-1.11329 l 1.52344,0 q 0,1.11329 -0.23438,2.10938 -0.23437,0.9668 -0.76171,1.72851 -0.52735,0.73243 -1.40625,1.17188 -0.84961,0.41016 -2.10938,0.41016 l -3.66211,0 0,15.96679 q 0,0.64453 -0.0293,1.23047 0,0.58594 0,1.11328 0,0.9668 0.0586,1.72852 0.0879,0.76172 0.32226,1.28906 0.23438,0.49805 0.67383,0.79102 0.43946,0.26367 1.20117,0.26367 0.67383,0 1.31836,-0.43945 0.67383,-0.43946 1.17188,-1.34766 0.52734,-0.9375 0.84961,-2.34375 0.32226,-1.40625 0.32226,-3.31055 l 2.28516,0 z" />
    </g>
    <g
       style="font-style:normal;font-variant:normal;font-weight:normal;font-stretch:normal;font-size:60px;line-height:125%;font-family:Arial;-inkscape-font-specification:'Arial, Normal';text-align:start;letter-spacing:0px;word-spacing:0px;writing-mode:lr-tb;text-anchor:start;fill:#a4a3a4;fill-opacity:1;stroke:none;stroke-width:1px;stroke-linecap:butt;stroke-linejoin:miter;stroke-opacity:1;filter:url(#filter6466)"
       id="g6306"
       transform="matrix(9.0003817,0,0,9.0003817,-1596.4619,-5453.0206)">
      <path
         d="m 231.08389,692.30804 c 0,1.64063 -0.42894,3.72522 -0.80003,4.95569 -0.35156,1.23047 -0.83984,2.25586 -1.46484,3.07617 -0.60547,0.82031 -1.31837,1.43555 -2.13868,1.84571 -0.82031,0.41015 -1.69922,0.61523 -2.63672,0.61523 -1.46484,0 -2.62695,-0.24414 -3.48632,-0.73242 -0.83985,-0.50781 -1.48438,-1.14258 -1.9336,-1.9043 -0.44922,-0.76171 -0.74219,-1.60156 -0.8789,-2.51953 -0.11719,-0.91797 -0.17578,-1.80664 -0.17578,-2.66601 l 0,-16.96289 -8.17383,0 0,13.74023 c 0,1.5625 -0.16602,3.01758 -0.49805,4.36523 -0.33203,1.34766 -0.82031,2.51954 -1.46484,3.51563 -0.64453,0.97656 -1.43555,1.74804 -2.37305,2.31445 -0.9375,0.56641 -2.01172,0.84961 -3.22266,0.84961 -0.85937,0 -1.57226,-0.24414 -2.13867,-0.73242 -0.54687,-0.48828 -0.97656,-1.12305 -1.28906,-1.9043 -0.3125,-0.80078 -0.52734,-1.69922 -0.64453,-2.69531 -0.11719,-1.01563 -0.25691,-2.60893 -0.25691,-3.64408 l 1.58653,-0.2434 c 0,1.17188 0.69186,2.94021 1.10202,3.6824 0.42969,0.72266 0.97656,1.08399 1.64062,1.08399 0.29297,0 0.61524,-0.0488 0.9668,-0.14649 0.37109,-0.11719 0.73242,-0.33203 1.08398,-0.64453 0.3711,-0.33203 0.72266,-0.79102 1.05469,-1.37695 0.33203,-0.58594 0.625,-1.34766 0.87891,-2.28516 0.27343,-0.95703 0.48828,-2.10937 0.64453,-3.45703 0.15625,-1.36719 0.23437,-2.98828 0.23437,-4.86328 l 0,-7.55859 -2.51953,0 c -0.99609,0 -1.77734,0.12695 -2.34375,0.38086 -0.56641,0.2539 -0.99609,0.5664 -1.28906,0.9375 -0.29297,0.35156 -0.49804,0.72265 -0.61523,1.11328 -0.11719,0.39062 -0.21484,0.71288 -0.29297,0.96679 l -2.48799,0.16226 c 0,-0.66406 0.85713,-1.57827 1.11103,-2.41812 0.25391,-0.83984 0.6543,-1.63085 1.20118,-2.37304 0.56641,-0.74219 1.28906,-1.35742 2.16797,-1.84571 0.8789,-0.50781 1.95312,-0.76171 3.22265,-0.76171 l 21.5918,0 c 0.66406,0 1.27929,-0.15625 1.8457,-0.46875 0.56641,-0.3125 0.9082,-1.25151 1.02539,-1.6812 l 1.6857,-0.16227 c 0,0.7422 -0.24039,2.1755 -0.39664,2.83956 -0.15625,0.64453 -0.41015,1.2207 -0.76171,1.72851 -0.35157,0.48829 -0.82032,0.87891 -1.40625,1.17188 -0.56641,0.27344 -1.26953,0.41016 -2.10938,0.41016 l -3.66211,0 0,15.96679 c 0,0.42969 -0.01,0.83984 -0.0293,1.23047 l 0,1.11328 c 0,0.64453 0.0195,1.22071 0.0586,1.72852 0.0586,0.50781 0.16602,0.9375 0.32226,1.28906 0.15625,0.33203 0.38086,0.59571 0.67383,0.79102 0.29297,0.17578 0.69336,0.26367 1.20117,0.26367 0.44922,0 0.88867,-0.14648 1.31836,-0.43945 0.44922,-0.29297 0.83985,-0.74219 1.17188,-1.34766 0.35156,-0.625 0.63476,-1.40625 0.84961,-2.34375 0.21484,-0.9375 0.40339,-2.60893 0.40339,-3.87846 z"
         style="font-style:normal;font-variant:normal;font-weight:normal;font-stretch:normal;font-size:60px;line-height:125%;font-family:'Abyssinica SIL';-inkscape-font-specification:'Abyssinica SIL, Normal';text-align:start;writing-mode:lr-tb;text-anchor:start;fill:#a4a3a4;fill-opacity:1"
         id="path6308"
         inkscape:connector-curvature="0"
         sodipodi:nodetypes="cccsscscsccsscssccccccsccsccscsscsccsccssscccccscscscccsccscc" />
    </g>
    <g
       style="font-style:normal;font-variant:normal;font-weight:normal;font-stretch:normal;font-size:60px;line-height:125%;font-family:Arial;-inkscape-font-specification:'Arial, Normal';text-align:start;letter-spacing:0px;word-spacing:0px;writing-mode:lr-tb;text-anchor:start;fill:#f4f4f4;fill-opacity:1;stroke:none;stroke-width:1px;stroke-linecap:butt;stroke-linejoin:miter;stroke-opacity:1;filter:url(#filter6294)"
       id="g5870"
       transform="matrix(9.0003817,0,0,9.0003817,-1604.4619,-5459.0206)">
      <path
         d="m 230.8405,692.95709 q 0,2.46094 -0.55664,4.30664 -0.52734,1.84571 -1.46484,3.07617 -0.90821,1.23047 -2.13868,1.84571 -1.23047,0.61523 -2.63672,0.61523 -2.19726,0 -3.48632,-0.73242 -1.25977,-0.76172 -1.9336,-1.9043 -0.67383,-1.14257 -0.8789,-2.51953 -0.17578,-1.37695 -0.17578,-2.66601 l 0,-16.96289 -8.17383,0 0,13.74023 q 0,2.34375 -0.49805,4.36523 -0.49805,2.02149 -1.46484,3.51563 -0.9668,1.46484 -2.37305,2.31445 -1.40625,0.84961 -3.22266,0.84961 -1.28906,0 -2.13867,-0.73242 -0.82031,-0.73242 -1.28906,-1.9043 -0.46875,-1.20117 -0.64453,-2.69531 -0.17578,-1.52344 -0.17578,-3.07617 l 1.99218,0 q 0,1.75781 0.61524,2.87109 0.64453,1.08399 1.64062,1.08399 0.43946,0 0.9668,-0.14649 0.55664,-0.17578 1.08398,-0.64453 0.55665,-0.49805 1.05469,-1.37695 0.49805,-0.87891 0.87891,-2.28516 0.41015,-1.43554 0.64453,-3.45703 0.23437,-2.05078 0.23437,-4.86328 l 0,-7.55859 -2.51953,0 q -1.49414,0 -2.34375,0.38086 -0.84961,0.38085 -1.28906,0.9375 -0.43945,0.52734 -0.61523,1.11328 -0.17578,0.58593 -0.29297,0.96679 l -1.75781,0 q 0,-0.99609 0.38085,-2.25586 0.38086,-1.25976 1.20118,-2.37304 0.84961,-1.11328 2.16797,-1.84571 1.31835,-0.76171 3.22265,-0.76171 l 21.5918,0 q 0.99609,0 1.8457,-0.46875 0.84961,-0.46875 1.02539,-1.11329 l 1.52344,0 q 0,1.11329 -0.23438,2.10938 -0.23437,0.9668 -0.76171,1.72851 -0.52735,0.73243 -1.40625,1.17188 -0.84961,0.41016 -2.10938,0.41016 l -3.66211,0 0,15.96679 q 0,0.64453 -0.0293,1.23047 0,0.58594 0,1.11328 0,0.9668 0.0586,1.72852 0.0879,0.76172 0.32226,1.28906 0.23438,0.49805 0.67383,0.79102 0.43946,0.26367 1.20117,0.26367 0.67383,0 1.31836,-0.43945 0.67383,-0.43946 1.17188,-1.34766 0.52734,-0.9375 0.84961,-2.34375 0.32226,-1.40625 0.32226,-3.31055 l 2.28516,0 z"
         style="font-style:normal;font-variant:normal;font-weight:normal;font-stretch:normal;font-size:60px;line-height:125%;font-family:'Abyssinica SIL';-inkscape-font-specification:'Abyssinica SIL, Normal';text-align:start;writing-mode:lr-tb;text-anchor:start;fill:#f4f4f4;fill-opacity:1"
         id="path5872"
         inkscape:connector-curvature="0" />
    </g>
  </g>
</svg>
